<?xml version="1.0" encoding="UTF-8"?>
<svg width="149px" height="20px" viewBox="0 0 149 20" version="1.1" xmlns="http://www.w3.org/2000/svg" xmlns:xlink="http://www.w3.org/1999/xlink">
    <!-- Generator: Sketch 53 (72520) - https://sketchapp.com -->
    <title>分组</title>
    <desc>Created with Sketch.</desc>
    <defs>
        <polygon id="path-1" points="0 0.310380952 10.8393953 0.310380952 10.8393953 12.2941905 0 12.2941905"></polygon>
        <polygon id="path-3" points="0 0.310380952 10.8393953 0.310380952 10.8393953 12.2941905 0 12.2941905"></polygon>
        <polygon id="path-5" points="0 19.5000952 148.937834 19.5000952 148.937834 9.52380952e-05 0 9.52380952e-05"></polygon>
    </defs>
    <g id="Page-2" stroke="none" stroke-width="1" fill="none" fill-rule="evenodd">
        <g id="风险信息原" transform="translate(-10.000000, -15.000000)">
            <g id="分组">
                <g id="顶部导航">
                    <g id="logo">
                        <g id="分组" transform="translate(10.000000, 15.000000)">
                            <g transform="translate(0.000000, 1.404857)">
                                <mask id="mask-2" fill="white">
                                    <use xlink:href="#path-1"></use>
                                </mask>
                                <g id="Clip-2"></g>
                                <path d="M6.60923417,0.310380952 C7.81023829,0.434190476 8.78855227,1.28942857 9.08452079,2.41609524 C9.14352417,2.6427619 9.17778419,2.88085714 9.17778419,3.12561905 C9.17778419,3.32847619 9.15494417,3.52466667 9.11497415,3.71514286 C8.8399423,4.99133333 7.69603822,5.94847619 6.32183065,5.95609524 C6.31707231,5.95609524 6.31231398,5.95704762 6.30755564,5.95704762 L3.43923042,5.95704762 L3.16134357,5.95704762 L3.16134357,5.96085714 C3.10709854,5.96085714 3.05380517,5.96180952 3.0005118,5.96466667 L2.99860847,5.96466667 C2.9453151,5.96657143 2.8929734,5.97133333 2.84158336,5.97609524 C2.80066167,5.98085714 2.76164331,5.98847619 2.72167329,5.99419048 C2.65791158,6.0027619 2.5931982,6.01038095 2.52943649,6.0227619 C2.47899813,6.0332381 2.43046309,6.04752381 2.3809764,6.05990476 C2.33053803,6.07228571 2.28009966,6.08371429 2.23061296,6.098 C2.17256126,6.11514286 2.11831622,6.138 2.06216785,6.158 C2.04503784,6.16371429 2.02790783,6.17038095 2.00982615,6.17704762 C1.9879378,6.18466667 1.96604946,6.19133333 1.94416111,6.20085714 C1.94320944,6.20085714 1.94320944,6.20085714 1.94225777,6.20085714 C1.8803994,6.22657143 1.82139603,6.25609524 1.76144099,6.28561905 C1.7319393,6.30085714 1.70053428,6.3132381 1.6710326,6.32847619 C1.60536755,6.3627619 1.54160584,6.40180952 1.4787958,6.44180952 C1.45785912,6.45514286 1.43501911,6.46657143 1.4150341,6.47990476 C1.41408243,6.48085714 1.41313076,6.48085714 1.41217909,6.48180952 C1.34365905,6.52657143 1.27989734,6.57514286 1.21613563,6.62466667 C1.20186062,6.63514286 1.18758561,6.64371429 1.17521394,6.65419048 C1.10479056,6.70942857 1.03912552,6.76847619 0.974412139,6.83038095 C0.967750468,6.83609524 0.96013713,6.84180952 0.953475459,6.84847619 L0.951572124,6.85038095 C0.884003747,6.91609524 0.819290371,6.98466667 0.758383664,7.05609524 C0.75648033,7.058 0.753625328,7.05990476 0.751721993,7.0627619 C0.699380292,7.12371429 0.648941926,7.18752381 0.601358561,7.2532381 C0.593745223,7.26371429 0.585180217,7.27419048 0.577566879,7.28561905 C0.535693518,7.34371429 0.497626827,7.40371429 0.459560135,7.46371429 C0.446236793,7.48561905 0.433865118,7.50657143 0.420541776,7.52847619 C0.389136755,7.5827619 0.359635069,7.63895238 0.331085051,7.69514286 C0.314906707,7.72657143 0.29968003,7.758 0.285405021,7.78942857 C0.266371675,7.82942857 0.250193331,7.86942857 0.234014987,7.90942857 C0.212126639,7.96180952 0.191189959,8.01514286 0.17310828,8.06847619 C0.165494942,8.08847619 0.159784938,8.10847619 0.153123267,8.12847619 C0.12742825,8.20752381 0.105539903,8.28657143 0.0865065568,8.36657143 C0.0846032222,8.37609524 0.0817482203,8.38561905 0.0798448857,8.39514286 C0.0360681903,8.58942857 0.00942150618,8.78942857 0.00466316973,8.99609524 L0.00466316973,8.9827619 C0.00371150244,9.01514286 -9.51667291e-05,9.04561905 -9.51667291e-05,9.078 C-9.51667291e-05,9.098 0.00466316973,9.11704762 0.00466316973,9.13609524 L0.00466316973,10.1608571 L0.00466316973,10.310381 L0.00466316973,12.2941905 C0.0151315099,11.7151429 0.185479955,11.1760952 0.474786812,10.7151429 C1.03246384,9.82752381 2.02505283,9.23419048 3.16134357,9.23419048 L6.30755564,9.23419048 C6.31231398,9.23419048 6.31707231,9.2332381 6.32183065,9.2332381 C8.61534882,9.22657143 10.5034567,7.53704762 10.7956186,5.35228571 C10.8213136,5.15895238 10.8393953,4.96466667 10.8393953,4.76466667 C10.8393953,2.39609524 8.97032072,0.464666667 6.60923417,0.310380952" id="Fill-1" fill="#3792EA" mask="url(#mask-2)"></path>
                            </g>
                            <path d="M13.2444489,1.69342857 L18.507169,1.69342857 C19.4045912,1.69342857 20.1944751,1.7867619 20.8768205,1.97152381 C21.5601176,2.15628571 22.1263597,2.41628571 22.574595,2.75342857 C23.0228303,3.09057143 23.3606722,3.4867619 23.5890723,3.942 C23.8165208,4.3972381 23.9307209,4.89628571 23.9307209,5.43819048 C23.9307209,6.22961905 23.6395107,6.92390476 23.0570903,7.5172381 C22.4746699,8.11152381 21.7009644,8.56104762 20.7369254,8.86485714 L25.697967,15.462 L21.9826579,15.462 L17.2823732,9.22104762 L16.6790161,9.22104762 L16.6790161,15.462 L13.2444489,15.462 L13.2444489,1.69342857 Z M16.6790161,8.03247619 L17.4222683,8.03247619 C17.8371952,8.03247619 18.2254755,7.97628571 18.587109,7.86485714 C18.9487426,7.75247619 19.2599378,7.5867619 19.5216463,7.36866667 C19.7824031,7.15152381 19.9870116,6.8867619 20.1335684,6.57628571 C20.2810768,6.2667619 20.3553069,5.91342857 20.3553069,5.5172381 C20.3553069,4.79057143 20.1411817,4.19342857 19.7119798,3.72390476 C19.2827778,3.25533333 18.7346175,3.02104762 18.0646437,3.02104762 L16.6790161,3.02104762 L16.6790161,8.03247619 Z" id="Fill-3" fill="#585C61"></path>
                            <path d="M29.8359116,15.3918095 C29.2059078,15.2013333 28.6701191,14.9337143 28.2285455,14.5899048 C27.7869719,14.2470476 27.4358067,13.8375238 27.1750498,13.3613333 C26.9133413,12.8860952 26.7353795,12.3718095 26.6421161,11.8165714 L29.0127194,11.8165714 C29.1859228,12.5032381 29.511393,13.0813333 29.986275,13.5489524 C30.4621087,14.0194286 31.1349374,14.2537143 32.0047613,14.2537143 C32.2997782,14.2537143 32.5881334,14.2232381 32.8698269,14.1632381 C33.1496171,14.1041905 33.4018089,14.0089524 33.6225957,13.8765714 C33.8433825,13.7451429 34.0241993,13.5670476 34.1650461,13.3422857 C34.3049412,13.1175238 34.3753646,12.8470476 34.3753646,12.5299048 C34.3753646,11.988 34.1916928,11.5232381 33.8233975,11.1327619 C33.4551023,10.7441905 32.995447,10.3899048 32.4472866,10.0727619 C31.8981746,9.75657143 31.2986242,9.4527619 30.6486354,9.16133333 C29.9995984,8.87180952 29.4009996,8.54514286 28.8518876,8.18133333 C28.3027756,7.81847619 27.8440719,7.40228571 27.4757767,6.93371429 C27.1074815,6.46514286 26.922858,5.8927619 26.922858,5.21942857 C26.922858,4.67752381 27.0437197,4.1727619 27.2844916,3.70419048 C27.5252634,3.23561905 27.8773803,2.82990476 28.3389389,2.48609524 C28.8014492,2.14228571 29.3667396,1.87561905 30.0367134,1.6832381 C30.7066871,1.49180952 31.4632626,1.39657143 32.3064399,1.39657143 C33.0163837,1.39657143 33.6559041,1.49180952 34.2250011,1.6832381 C34.7931465,1.87561905 35.2965785,2.13657143 35.7314904,2.46609524 C36.1664024,2.79561905 36.5318426,3.18895238 36.8268595,3.64514286 C37.1209247,4.10038095 37.3483732,4.58609524 37.5092049,5.10038095 L35.3603402,5.10038095 C35.2394785,4.77085714 35.0957767,4.45657143 34.9282833,4.16038095 C34.7607898,3.8632381 34.5561813,3.60228571 34.3154095,3.37752381 C34.0746377,3.1527619 33.7824758,2.97466667 33.4417789,2.84228571 C33.1001304,2.71085714 32.6890101,2.64419048 32.2065148,2.64419048 C31.7639895,2.64419048 31.3928393,2.70038095 31.0911607,2.8127619 C30.7894822,2.92514286 30.5420487,3.06990476 30.3479086,3.24895238 C30.1537685,3.42704762 30.0167284,3.628 29.9358366,3.8527619 C29.8558966,4.07752381 29.8159266,4.29561905 29.8159266,4.50704762 C29.8159266,4.99466667 30.0072117,5.42514286 30.3878786,5.79371429 C30.7694972,6.16419048 31.2453308,6.51085714 31.8144279,6.83466667 C32.3835249,7.15752381 32.9992537,7.47466667 33.6625658,7.78514286 C34.3249262,8.09561905 34.9416066,8.43561905 35.5107036,8.80514286 C36.0798007,9.17561905 36.5556343,9.59466667 36.9363012,10.0632381 C37.3179198,10.5318095 37.5092049,11.0832381 37.5092049,11.7175238 C37.5092049,12.2718095 37.3911982,12.7908571 37.1580397,13.2727619 C36.9229779,13.7546667 36.5756193,14.1746667 36.113109,14.5308571 C35.6515504,14.8870476 35.0786467,15.168 34.3953496,15.3727619 C33.7130041,15.5775238 32.9231203,15.6794286 32.025698,15.6794286 C31.1948925,15.6794286 30.4659153,15.5832381 29.8359116,15.3918095" id="Fill-5" fill="#585C61"></path>
                            <path d="M6.32620832,7.36304762 C6.33572499,7.36304762 6.34524166,7.36019048 6.35475834,7.36019048 C6.34238666,7.36019048 6.32906332,7.36209524 6.31764331,7.36209524 C6.32049831,7.36209524 6.32335332,7.36304762 6.32620832,7.36304762" id="Fill-7" fill="#2EA7E0"></path>
                            <g transform="translate(0.000000, 1.404857)">
                                <mask id="mask-4" fill="white">
                                    <use xlink:href="#path-3"></use>
                                </mask>
                                <g id="Clip-10"></g>
                                <path d="M6.60923417,0.310380952 C8.05291345,0.458952381 9.17778419,1.6627619 9.17778419,3.12561905 C9.17778419,4.68466667 7.90064668,5.94752381 6.32183065,5.95609524 C6.31707231,5.95609524 6.31231398,5.95704762 6.30755564,5.95704762 L3.16134357,5.95704762 L3.16134357,5.96085714 C3.0528535,5.96085714 2.94626677,5.96561905 2.84158336,5.97609524 C2.80066167,5.98085714 2.76164331,5.98847619 2.72167329,5.99419048 C2.65791158,6.0027619 2.5931982,6.01038095 2.52943649,6.0227619 C2.47899813,6.0332381 2.43046309,6.04752381 2.3809764,6.05990476 C2.33053803,6.07228571 2.28009966,6.08371429 2.23061296,6.098 C2.17256126,6.11514286 2.11831622,6.138 2.06216785,6.158 C2.04503784,6.16371429 2.02790783,6.17038095 2.00982615,6.17704762 C1.9879378,6.18466667 1.96509779,6.19133333 1.94320944,6.20085714 C1.88135107,6.22657143 1.82139603,6.25609524 1.76144099,6.28561905 C1.7319393,6.30085714 1.70053428,6.3132381 1.6710326,6.32847619 C1.60536755,6.3627619 1.54160584,6.40180952 1.4787958,6.44180952 C1.45785912,6.45514286 1.43501911,6.46657143 1.41408243,6.48085714 C1.34556238,6.52561905 1.27989734,6.57419048 1.21613563,6.62466667 C1.20186062,6.63514286 1.18758561,6.64371429 1.17521394,6.65419048 C1.10479056,6.70942857 1.03912552,6.76847619 0.974412139,6.83038095 C0.967750468,6.83704762 0.96013713,6.8427619 0.953475459,6.84942857 C0.884955414,6.91514286 0.820242038,6.98371429 0.758383664,7.05609524 C0.75648033,7.058 0.753625328,7.05990476 0.751721993,7.0627619 C0.283501686,7.60657143 -9.51667291e-05,8.30847619 -9.51667291e-05,9.078 C-9.51667291e-05,9.098 0.00466316973,9.11704762 0.00466316973,9.13609524 L0.00466316973,12.2941905 C0.0151315099,11.7151429 0.185479955,11.1760952 0.474786812,10.7151429 C1.03246384,9.82752381 2.02505283,9.23419048 3.16134357,9.23419048 L6.30755564,9.23419048 C6.31231398,9.23419048 6.31707231,9.2332381 6.32183065,9.2332381 C8.81805395,9.22561905 10.8393953,7.22847619 10.8393953,4.76466667 C10.8393953,2.39609524 8.97032072,0.464666667 6.60923417,0.310380952" id="Fill-9" fill="#3792EA" mask="url(#mask-4)"></path>
                            </g>
                            <path d="M0.474977145,13.294 C0.185670288,13.7549524 0.0153218434,14.2949524 0.00390183589,14.8730476 L0.00390183589,15.461619 L3.43942076,15.461619 L3.43942076,11.8130476 L3.16153391,11.8130476 C2.02524316,11.8130476 1.03170251,12.406381 0.474977145,13.294" id="Fill-11" fill="#585C61"></path>
                            <path d="M0.0865065568,9.77142857 C0.105539903,9.69142857 0.12742825,9.61142857 0.153123267,9.53333333 C0.159784938,9.51333333 0.165494942,9.49333333 0.17310828,9.47428571 C0.192141626,9.42 0.212126639,9.36666667 0.23306332,9.31428571 C0.250193331,9.27428571 0.267323342,9.23428571 0.285405021,9.19428571 C0.29968003,9.16285714 0.314906707,9.13142857 0.330133383,9.1 C0.359635069,9.04380952 0.389136755,8.98761905 0.420541776,8.93333333 C0.432913451,8.91142857 0.446236793,8.89047619 0.459560135,8.86857143 C0.496675159,8.80857143 0.535693518,8.74857143 0.577566879,8.69047619 C0.585180217,8.68 0.593745223,8.66857143 0.602310229,8.65809524 C0.706993631,8.51428571 0.824048707,8.37904762 0.951572124,8.2552381 L0.953475459,8.25428571 L0.953475459,8.25333333 C1.09432222,8.11809524 1.24754065,7.9952381 1.41217909,7.88666667 C1.41313076,7.88666667 1.41313076,7.88571429 1.41408243,7.88571429 C1.4150341,7.88571429 1.4150341,7.8847619 1.4150341,7.8847619 C1.5806242,7.77619048 1.75668265,7.68285714 1.94225777,7.60571429 C1.94320944,7.60571429 1.94320944,7.60571429 1.94320944,7.60571429 L1.94416111,7.60571429 C2.27058299,7.46952381 2.62650656,7.38857143 2.99860847,7.36952381 L3.0005118,7.36952381 C3.05380517,7.36666667 3.10709854,7.36571429 3.16134357,7.36571429 L3.16134357,7.36190476 L3.43923042,7.36190476 L3.43923042,4.97047619 L5.41298839,4.97047619 L6.30660397,4.97047619 L6.30660397,4.97904762 C6.31231398,4.97904762 6.31707231,4.97714286 6.32183065,4.97714286 C6.98990109,4.97714286 7.53044811,5.51142857 7.53044811,6.16952381 C7.53044811,6.28190476 7.50951143,6.38857143 7.48000974,6.49238095 C7.97773173,5.98285714 8.2841686,5.29333333 8.2841686,4.53047619 C8.2841686,3.06761905 7.15929786,1.86380952 5.71561858,1.7152381 C5.61474185,1.70857143 5.51576845,1.7 5.41394005,1.7 L5.41394005,1.69333333 L3.43923042,1.69333333 L3.43637542,1.69333333 L2.54561484,1.69333333 L2.54275984,1.69333333 L0.00466316973,1.69333333 L0.00466316973,8.31238095 L0.00466316973,10.387619 C0.0103731735,10.1866667 0.0360681903,9.98952381 0.0798448857,9.8 C0.0817482203,9.79047619 0.0846032222,9.78095238 0.0865065568,9.77142857" id="Fill-13" fill="#585C61"></path>
                            <path d="M3.00098764,7.36904762 C3.00098764,7.36904762 3.00003597,7.36904762 2.9990843,7.36904762 C3.00003597,7.36904762 3.00098764,7.36904762 3.00098764,7.36904762" id="Fill-15" fill="#3792EA"></path>
                            <path d="M1.94244811,7.60628571 C1.94339978,7.60628571 1.94339978,7.60628571 1.94435144,7.60533333 L1.94435144,7.60533333 C1.94339978,7.60628571 1.94244811,7.60628571 1.94244811,7.60628571" id="Fill-17" fill="#3792EA"></path>
                            <path d="M6.30717497,7.36352381 C6.31288498,7.36352381 6.32049831,7.36257143 6.32715999,7.36257143 C6.32049831,7.36257143 6.31288498,7.35971429 6.30717497,7.35971429 L6.30717497,7.36352381 Z" id="Fill-19" fill="#E4007F"></path>
                            <mask id="mask-6" fill="white">
                                <use xlink:href="#path-5"></use>
                            </mask>
                            <g id="Clip-22"></g>
                            <polygon id="Fill-21" fill="#585C61" mask="url(#mask-6)" points="38.9622106 11.2200952 44.8178194 11.2200952 44.8178194 9.56009524 38.9622106 9.56009524"></polygon>
                            <polygon id="Fill-23" fill="#585C61" mask="url(#mask-6)" points="57.3677415 1.47990476 57.3677415 2.65990476 50.4129569 2.65990476 50.4129569 7.23990476 56.1895774 7.23990476 56.1895774 8.43990476 50.4129569 8.43990476 50.4129569 13.9599048 57.3677415 13.9599048 57.3677415 15.3799048 46.9964713 15.3799048 46.9964713 1.47990476"></polygon>
                            <path d="M66.1817984,8.20009524 C66.1817984,7.65342857 66.0752117,7.24009524 65.8610865,6.96009524 C65.6479131,6.68009524 65.4090446,6.54009524 65.1416261,6.54009524 C64.8618359,6.54009524 64.515429,6.6467619 64.1024054,6.86009524 C63.6903335,7.07342857 63.2972949,7.35342857 62.9232896,7.70009524 L62.9232896,15.3800952 L59.7266392,15.3800952 L59.7266392,4.90009524 L62.9232896,4.90009524 L62.9232896,5.72009524 C63.4029299,5.36009524 63.9234919,5.0972381 64.4830723,4.92961905 C65.0426527,4.76390476 65.602233,4.68009524 66.1618134,4.68009524 C66.5881604,4.68009524 66.9945223,4.76390476 67.3808992,4.92961905 C67.7663245,5.0972381 68.1060697,5.32295238 68.3991832,5.61057143 C68.6932484,5.8972381 68.9264069,6.2372381 69.0986587,6.63057143 C69.2718621,7.02390476 69.3594155,7.44009524 69.3594155,7.88009524 L69.3594155,15.3800952 L66.1817984,15.3800952 L66.1817984,8.20009524 Z" id="Fill-24" fill="#585C61" mask="url(#mask-6)"></path>
                            <path d="M71.0572851,6.18 L71.0572851,5.12 C71.4303387,5.12 71.7872139,5.02761905 72.1269592,4.84 C72.4657527,4.65333333 72.7693346,4.4 73.0358014,4.08 C73.3022683,3.76 73.5325717,3.38380952 73.7257602,2.95047619 C73.9189487,2.51714286 74.0616988,2.05333333 74.1549622,1.56 L75.914595,1.56 L75.914595,4.9 L78.49171,4.9 L78.49171,6.18 L75.914595,6.18 L75.914595,12.94 C75.914595,13.1533333 75.9669367,13.3371429 76.0735234,13.4904762 C76.1801102,13.6438095 76.3266669,13.72 76.5131937,13.72 C76.6331038,13.72 76.7558689,13.6838095 76.8833923,13.6104762 C77.009964,13.5371429 77.1327291,13.4504762 77.2526392,13.3504762 C77.3725493,13.2504762 77.479136,13.1533333 77.5723994,13.06 C77.6656628,12.9666667 77.7322795,12.8933333 77.7722495,12.84 L78.8714253,13.7 C78.6848985,13.9666667 78.488855,14.2171429 78.2823432,14.4504762 C78.0748797,14.6838095 77.8322046,14.887619 77.5524144,15.06 C77.2726242,15.2333333 76.955719,15.3695238 76.6026504,15.4704762 C76.2495819,15.5695238 75.8403649,15.62 75.374048,15.62 C74.4947074,15.62 73.8352019,15.38 73.3955317,14.9 C72.9558614,14.42 72.7360262,13.8 72.7360262,13.04 L72.7360262,6.18 L71.0572851,6.18 Z" id="Fill-25" fill="#585C61" mask="url(#mask-6)"></path>
                            <path d="M86.4651592,8.08009524 C86.3994942,7.45342857 86.1920307,6.94961905 85.8465755,6.57057143 C85.4992169,6.19057143 85.07287,6.00009524 84.5675347,6.00009524 C84.1678344,6.00009524 83.8004908,6.1867619 83.4683589,6.56009524 C83.1343237,6.93342857 82.9344736,7.44009524 82.8688085,8.08009524 L86.4651592,8.08009524 Z M85.1061783,15.6200952 C84.3600712,15.6200952 83.6615474,15.4829524 83.007752,15.209619 C82.3558599,14.9372381 81.7858112,14.5639048 81.2995092,14.0905714 C80.8132072,13.6172381 80.4296853,13.0705714 80.1498951,12.449619 C79.8701049,11.8305714 79.7311615,11.1734286 79.7311615,10.4800952 C79.7311615,9.65342857 79.8605882,8.8867619 80.1203934,8.18009524 C80.3801986,7.47342857 80.7465905,6.86009524 81.2195691,6.34009524 C81.6915961,5.82009524 82.2616448,5.41342857 82.9278119,5.12009524 C83.593979,4.8267619 84.3410378,4.68009524 85.1670851,4.68009524 C85.8989172,4.68009524 86.5679393,4.7972381 87.175103,5.02961905 C87.7813151,5.26295238 88.3009254,5.58009524 88.7339341,5.98009524 C89.1669427,6.38009524 89.5028812,6.85342857 89.7427014,7.40009524 C89.9825215,7.9467619 90.1024316,8.53342857 90.1024316,9.16009524 L82.8478719,9.16009524 C82.8611952,9.7467619 82.9411353,10.3029524 83.087692,10.8305714 C83.2342488,11.3572381 83.4312439,11.8200952 83.6777257,12.2200952 C83.9242076,12.6200952 84.2144661,12.9400952 84.546598,13.1800952 C84.8796815,13.4200952 85.2470251,13.5400952 85.6467254,13.5400952 C86.0064556,13.5400952 86.3557175,13.4800952 86.6954627,13.3600952 C87.0352079,13.2400952 87.3454515,13.0734286 87.6252417,12.8600952 C87.9050318,12.6467619 88.150562,12.4039048 88.3637355,12.129619 C88.5778606,11.8572381 88.7310791,11.5600952 88.8243425,11.2400952 L90.4621619,11.4800952 C90.3022818,12.0534286 90.0434283,12.589619 89.683698,13.0905714 C89.3239678,13.5905714 88.9004758,14.0267619 88.4141738,14.4000952 C87.9278719,14.7734286 87.3977932,15.069619 86.8258411,15.289619 C86.2519858,15.5105714 85.6790821,15.6200952 85.1061783,15.6200952 L85.1061783,15.6200952 Z" id="Fill-26" fill="#585C61" mask="url(#mask-6)"></path>
                            <path d="M95.5785155,15.3801905 L92.4008985,15.3801905 L92.4008985,4.90019048 L95.5785155,4.90019048 L95.5785155,5.68019048 C95.9249224,5.32019048 96.3112994,5.02971429 96.7376463,4.80971429 C97.1639933,4.58971429 97.6103252,4.48019048 98.0766422,4.48019048 C98.3564324,4.48019048 98.6228992,4.51733333 98.8760427,4.58971429 C99.1282345,4.664 99.3490214,4.76685714 99.5355481,4.90019048 C99.7220749,5.03352381 99.8686317,5.18304762 99.9752184,5.34971429 C100.080854,5.51733333 100.135099,5.70019048 100.135099,5.90019048 C100.135099,6.27352381 100.000913,6.57733333 99.7353983,6.80971429 C99.4689314,7.044 99.1425096,7.16019048 98.7561326,7.16019048 C98.5029891,7.16019048 98.2955257,7.12019048 98.1365972,7.04019048 C97.9767171,6.96019048 97.8292087,6.87352381 97.6969269,6.78019048 C97.5636935,6.68685714 97.4266534,6.60019048 97.2867583,6.52019048 C97.1468632,6.44019048 96.9774665,6.40019048 96.7776163,6.40019048 C96.5777662,6.40019048 96.3712544,6.54685714 96.1571293,6.84019048 C95.9449075,7.13352381 95.751719,7.46685714 95.5785155,7.84019048 L95.5785155,15.3801905 Z" id="Fill-27" fill="#585C61" mask="url(#mask-6)"></path>
                            <path d="M104.551501,12.4601905 C104.551501,12.9668571 104.728511,13.4001905 105.08158,13.7601905 C105.434648,14.1201905 105.911433,14.3001905 106.510984,14.3001905 C106.790774,14.3001905 107.049628,14.2097143 107.289448,14.0297143 C107.529268,13.8497143 107.739586,13.5973333 107.919451,13.2706667 C108.099317,12.9430476 108.242067,12.5573333 108.348653,12.1097143 C108.456192,11.664 108.508534,11.1735238 108.508534,10.6401905 C108.508534,9.28019048 108.32962,8.25638095 107.96989,7.56971429 C107.609208,6.884 107.149553,6.54019048 106.590924,6.54019048 C106.191224,6.54019048 105.817218,6.66685714 105.471763,6.92019048 C105.125356,7.17352381 104.817968,7.48019048 104.551501,7.84019048 L104.551501,12.4601905 Z M101.354851,4.90019048 L104.551501,4.90019048 L104.551501,5.72019048 C104.911231,5.41352381 105.32711,5.16304762 105.800088,4.96971429 C106.274019,4.77733333 106.823131,4.68019048 107.449328,4.68019048 C108.115495,4.68019048 108.721707,4.81352381 109.267964,5.08019048 C109.814221,5.34685714 110.283393,5.704 110.677383,6.15066667 C111.070422,6.59733333 111.373052,7.12019048 111.587177,7.72019048 C111.799399,8.32019048 111.906937,8.95352381 111.906937,9.62019048 C111.906937,10.4735238 111.779414,11.264 111.526271,11.9897143 C111.273127,12.7173333 110.914348,13.3468571 110.44708,13.8801905 C109.980763,14.4135238 109.414521,14.8297143 108.748354,15.1297143 C108.082187,15.4306667 107.336079,15.5801905 106.510984,15.5801905 C106.097009,15.5801905 105.737278,15.5630476 105.431793,15.5297143 C105.125356,15.496381 104.831291,15.4201905 104.551501,15.3001905 L104.551501,19.5001905 L101.354851,19.5001905 L101.354851,4.90019048 Z" id="Fill-28" fill="#585C61" mask="url(#mask-6)"></path>
                            <path d="M117.022625,15.3801905 L113.845008,15.3801905 L113.845008,4.90019048 L117.022625,4.90019048 L117.022625,5.68019048 C117.369032,5.32019048 117.755409,5.02971429 118.181756,4.80971429 C118.608103,4.58971429 119.054435,4.48019048 119.520752,4.48019048 C119.800542,4.48019048 120.067009,4.51733333 120.320152,4.58971429 C120.572344,4.664 120.793131,4.76685714 120.979658,4.90019048 C121.166184,5.03352381 121.312741,5.18304762 121.419328,5.34971429 C121.524963,5.51733333 121.579208,5.70019048 121.579208,5.90019048 C121.579208,6.27352381 121.445023,6.57733333 121.179508,6.80971429 C120.913041,7.044 120.586619,7.16019048 120.200242,7.16019048 C119.947099,7.16019048 119.739635,7.12019048 119.580707,7.04019048 C119.420827,6.96019048 119.273318,6.87352381 119.141036,6.78019048 C119.007803,6.68685714 118.870763,6.60019048 118.730868,6.52019048 C118.590973,6.44019048 118.421576,6.40019048 118.221726,6.40019048 C118.021876,6.40019048 117.815364,6.54685714 117.601239,6.84019048 C117.389017,7.13352381 117.195828,7.46685714 117.022625,7.84019048 L117.022625,15.3801905 Z" id="Fill-29" fill="#585C61" mask="url(#mask-6)"></path>
                            <path d="M123.037448,5.46009524 L126.194128,4.58009524 L126.194128,15.3800952 L123.037448,15.3800952 L123.037448,5.46009524 Z M122.897553,1.56009524 C122.897553,1.13342857 123.063143,0.766761905 123.397178,0.460095238 C123.730262,0.153428571 124.12901,9.52380952e-05 124.596279,9.52380952e-05 C125.075919,9.52380952e-05 125.481329,0.153428571 125.815365,0.460095238 C126.148448,0.766761905 126.314038,1.13342857 126.314038,1.56009524 C126.314038,1.9867619 126.148448,2.34961905 125.815365,2.64961905 C125.481329,2.95057143 125.075919,3.10009524 124.596279,3.10009524 C124.12901,3.10009524 123.730262,2.95057143 123.397178,2.64961905 C123.063143,2.34961905 122.897553,1.9867619 122.897553,1.56009524 L122.897553,1.56009524 Z" id="Fill-30" fill="#585C61" mask="url(#mask-6)"></path>
                            <path d="M130.172193,12.4601905 C130.358719,13.0201905 130.625186,13.4601905 130.971593,13.7801905 C131.318,14.1001905 131.751009,14.2601905 132.270619,14.2601905 C132.710289,14.2601905 133.066213,14.1573333 133.339341,13.9497143 C133.61247,13.744 133.74951,13.4868571 133.74951,13.1801905 C133.74951,12.6868571 133.576306,12.2897143 133.2299,11.9897143 C132.883493,11.6897143 132.443822,11.4201905 131.910889,11.1801905 C131.497865,10.9935238 131.084842,10.7935238 130.671818,10.5801905 C130.258794,10.3668571 129.888596,10.1230476 129.562174,9.84971429 C129.236704,9.57733333 128.973092,9.26019048 128.773242,8.90019048 C128.573392,8.54019048 128.473466,8.12685714 128.473466,7.66019048 C128.473466,7.22019048 128.56673,6.81733333 128.753257,6.44971429 C128.939783,6.084 129.199589,5.77066667 129.532672,5.51066667 C129.865756,5.24971429 130.262601,5.04971429 130.721305,4.90971429 C131.181912,4.76971429 131.691054,4.70019048 132.250634,4.70019048 C132.770244,4.70019048 133.226093,4.74685714 133.619132,4.84019048 C134.01217,4.93352381 134.361432,5.06971429 134.668821,5.24971429 C134.975257,5.43066667 135.241724,5.64685714 135.468221,5.90019048 C135.694718,6.15352381 135.90123,6.44019048 136.087756,6.76019048 L134.26912,7.40019048 C134.161582,7.06685714 134.038817,6.80685714 133.899873,6.62019048 C133.759978,6.43352381 133.616277,6.29352381 133.46972,6.20019048 C133.323163,6.10685714 133.176606,6.05066667 133.030049,6.03066667 C132.883493,6.01066667 132.756921,6.00019048 132.650334,6.00019048 C132.263957,6.00019048 131.921357,6.084 131.62063,6.24971429 C131.320855,6.41733333 131.171443,6.66019048 131.171443,6.98019048 C131.171443,7.38019048 131.364632,7.73352381 131.751009,8.04019048 C132.136434,8.34685714 132.630349,8.62019048 133.2299,8.86019048 C133.66957,9.04685714 134.099723,9.25352381 134.518457,9.48019048 C134.939094,9.70685714 135.311196,9.96019048 135.637618,10.2401905 C135.96404,10.5201905 136.227652,10.8335238 136.427502,11.1801905 C136.627352,11.5268571 136.727277,11.9135238 136.727277,12.3401905 C136.727277,12.7935238 136.651143,13.2201905 136.496973,13.6201905 C136.343755,14.0201905 136.100128,14.3668571 135.767996,14.6601905 C135.434913,14.9535238 135.001904,15.1868571 134.46897,15.3601905 C133.936037,15.5335238 133.283193,15.6201905 132.510439,15.6201905 C131.857595,15.6201905 131.301822,15.5468571 130.841215,15.4001905 C130.382511,15.2535238 129.995182,15.0601905 129.682084,14.8201905 C129.368985,14.5801905 129.110132,14.3135238 128.90362,14.0201905 C128.696157,13.7268571 128.520098,13.4335238 128.373541,13.1401905 L130.172193,12.4601905 Z" id="Fill-31" fill="#585C61" mask="url(#mask-6)"></path>
                            <path d="M144.940641,8.08009524 C144.874976,7.45342857 144.667513,6.94961905 144.322058,6.57057143 C143.974699,6.19057143 143.548352,6.00009524 143.043017,6.00009524 C142.643317,6.00009524 142.275973,6.1867619 141.943841,6.56009524 C141.609806,6.93342857 141.409956,7.44009524 141.344291,8.08009524 L144.940641,8.08009524 Z M143.581661,15.6200952 C142.835553,15.6200952 142.13703,15.4829524 141.483234,15.209619 C140.831342,14.9372381 140.261293,14.5639048 139.774991,14.0905714 C139.288689,13.6172381 138.905167,13.0705714 138.625377,12.449619 C138.345587,11.8305714 138.206644,11.1734286 138.206644,10.4800952 C138.206644,9.65342857 138.33607,8.8867619 138.595876,8.18009524 C138.855681,7.47342857 139.222073,6.86009524 139.695051,6.34009524 C140.167078,5.82009524 140.737127,5.41342857 141.403294,5.12009524 C142.069461,4.8267619 142.81652,4.68009524 143.642567,4.68009524 C144.374399,4.68009524 145.043422,4.7972381 145.650585,5.02961905 C146.256797,5.26295238 146.776408,5.58009524 147.209416,5.98009524 C147.642425,6.38009524 147.978363,6.85342857 148.218184,7.40009524 C148.458004,7.9467619 148.577914,8.53342857 148.577914,9.16009524 L141.323354,9.16009524 C141.336677,9.7467619 141.416617,10.3029524 141.563174,10.8305714 C141.709731,11.3572381 141.906726,11.8200952 142.153208,12.2200952 C142.39969,12.6200952 142.689948,12.9400952 143.02208,13.1800952 C143.355164,13.4200952 143.722507,13.5400952 144.122208,13.5400952 C144.481938,13.5400952 144.8312,13.4800952 145.170945,13.3600952 C145.51069,13.2400952 145.820934,13.0734286 146.100724,12.8600952 C146.380514,12.6467619 146.626044,12.4039048 146.839218,12.129619 C147.053343,11.8572381 147.206561,11.5600952 147.299825,11.2400952 L148.937644,11.4800952 C148.777764,12.0534286 148.51891,12.589619 148.15918,13.0905714 C147.79945,13.5905714 147.375958,14.0267619 146.889656,14.4000952 C146.403354,14.7734286 145.873275,15.069619 145.301323,15.289619 C144.727468,15.5105714 144.154564,15.6200952 143.581661,15.6200952 L143.581661,15.6200952 Z" id="Fill-32" fill="#585C61" mask="url(#mask-6)"></path>
                        </g>
                    </g>
                </g>
            </g>
        </g>
    </g>
</svg>