<?xml version="1.0" encoding="UTF-8"?>
<svg width="18px" height="12px" viewBox="0 0 18 12" version="1.1" xmlns="http://www.w3.org/2000/svg" xmlns:xlink="http://www.w3.org/1999/xlink">
    <!-- Generator: Sketch 54.1 (76490) - https://sketchapp.com -->
    <title>分组</title>
    <desc>Created with Sketch.</desc>
    <defs>
        <polygon id="path-1" points="0 0.1001 17.6 0.1001 17.6 12 0 12"></polygon>
    </defs>
    <g id="风险信息" stroke="none" stroke-width="1" fill="none" fill-rule="evenodd">
        <g id="风险详情" transform="translate(-433.000000, -330.000000)">
            <g id="Group-10" transform="translate(190.000000, 123.000000)">
                <g id="分组-2-copy-2" transform="translate(239.000000, 204.000000)">
                    <g id="分组" transform="translate(4.000000, 2.000000)">
                        <g transform="translate(0.000000, 0.900000)">
                            <mask id="mask-2" fill="white">
                                <use xlink:href="#path-1"></use>
                            </mask>
                            <g id="Clip-2"></g>
                            <path d="M8.8,0.1001 C6.8,0.1001 5,0.7001 3.5,1.7001 C2,2.7001 0.6,4.1001 0,5.8001 L0,6.0001 L0,6.2001 C0.6,7.9001 2,9.4001 3.5,10.4001 C5,11.4001 6.8,12.0001 8.8,12.0001 C10.8,12.0001 12.6,11.4001 14.1,10.4001 C15.6,9.4001 17,8.0001 17.6,6.2001 L17.6,6.0001 L17.6,5.8001 C17,4.1001 15.6,2.6001 14.1,1.6001 C12.6,0.7001 10.8,0.1001 8.8,0.1001 M8.8,1.1001 C10.5,1.1001 12.2,1.6001 13.6,2.5001 C14.5,3.1001 16,4.3001 16.7,6.0001 C16.2,7.3001 15.1,8.5001 13.6,9.5001 C12.2,10.4001 10.6,10.9001 8.9,10.9001 C7.2,10.9001 5.5,10.4001 4.1,9.5001 C3.2,8.9001 1.6,7.7001 1,6.0001 C1.5,4.8001 2.6,3.5001 4.1,2.5001 C5.4,1.6001 7.1,1.1001 8.8,1.1001" id="Fill-1" fill="#3792EA" mask="url(#mask-2)"></path>
                        </g>
                        <path d="M8.8,4.5001 C7.5,4.5001 6.4,5.6001 6.4,6.9001 C6.4,8.2001 7.5,9.3001 8.8,9.3001 C10.1,9.3001 11.2,8.2001 11.2,6.9001 C11.2,5.6001 10.1,4.5001 8.8,4.5001 M8.8,10.3001 C6.9,10.3001 5.4,8.8001 5.4,6.9001 C5.4,5.0001 6.9,3.5001 8.8,3.5001 C10.7,3.5001 12.2,5.0001 12.2,6.9001 C12.2,8.8001 10.7,10.3001 8.8,10.3001" id="Fill-3" fill="#3792EA"></path>
                    </g>
                </g>
            </g>
        </g>
    </g>
</svg>