<?xml version="1.0" encoding="utf-8"?>
<!-- Generator: Adobe Illustrator 22.0.0, SVG Export Plug-In . SVG Version: 6.00 Build 0)  -->
<svg version="1.1" id="图层_1" xmlns="http://www.w3.org/2000/svg" xmlns:xlink="http://www.w3.org/1999/xlink" x="0px" y="0px"
	 viewBox="0 0 15 13" style="enable-background:new 0 0 15 13;" xml:space="preserve">
<style type="text/css">
	.st0{fill:#5A84B7;}
</style>
<title>Shape</title>
<desc>Created with Sketch.</desc>
<g id="网络协议">
	<g id="筛选" transform="translate(-1735.000000, -81.000000)">
		<g transform="translate(1550.000000, 70.000000)">
			<path id="Shape" class="st0" d="M192.5,23v-6.5c0-0.1,0-0.2,0.1-0.3l3.4-3.7h-9.1l3.4,3.7c0.1,0.1,0.1,0.2,0.1,0.3v4.6l0.8,0.7
				c0.2,0.2,0.3,0.5,0.1,0.7c-0.2,0.2-0.5,0.3-0.7,0.1l-1-0.8c-0.1-0.1-0.2-0.2-0.2-0.4v-4.6l-4-4.4c-0.1-0.1-0.2-0.4-0.1-0.5
				c0.1-0.2,0.3-0.3,0.5-0.3h11.5c0.2,0,0.4,0.1,0.5,0.3c0.1,0.2,0,0.4-0.1,0.5l-4,4.4V23c0,0.3-0.2,0.5-0.5,0.5
				C192.7,23.5,192.5,23.3,192.5,23z M199.3,16.5C199.3,16.5,199.3,16.5,199.3,16.5C199.2,16.5,199.2,16.5,199.3,16.5h-3.5
				c0,0,0,0,0,0c0,0,0,0,0,0c-0.3,0-0.5,0.2-0.5,0.5c0,0.3,0.2,0.5,0.5,0.5c0,0,0,0,0,0c0,0,0,0,0,0h3.5c0,0,0,0,0,0c0,0,0,0,0,0
				c0.3,0,0.5-0.2,0.5-0.5C199.8,16.7,199.6,16.5,199.3,16.5z M199.3,18.5C199.3,18.5,199.3,18.5,199.3,18.5
				C199.2,18.5,199.2,18.5,199.3,18.5h-3.5c0,0,0,0,0,0c0,0,0,0,0,0c-0.3,0-0.5,0.2-0.5,0.5c0,0.3,0.2,0.5,0.5,0.5c0,0,0,0,0,0
				c0,0,0,0,0,0h3.5c0,0,0,0,0,0c0,0,0,0,0,0c0.3,0,0.5-0.2,0.5-0.5C199.8,18.7,199.6,18.5,199.3,18.5z M199.3,20.5
				C199.3,20.5,199.3,20.5,199.3,20.5C199.2,20.5,199.2,20.5,199.3,20.5h-3.5c0,0,0,0,0,0c0,0,0,0,0,0c-0.3,0-0.5,0.2-0.5,0.5
				c0,0.3,0.2,0.5,0.5,0.5c0,0,0,0,0,0c0,0,0,0,0,0h3.5c0,0,0,0,0,0c0,0,0,0,0,0c0.3,0,0.5-0.2,0.5-0.5
				C199.8,20.7,199.6,20.5,199.3,20.5z"/>
		</g>
	</g>
</g>
</svg>
