<?xml version="1.0" encoding="utf-8"?>
<!-- Generator: Adobe Illustrator 22.0.0, SVG Export Plug-In . SVG Version: 6.00 Build 0)  -->
<svg version="1.1" id="图层_1" xmlns="http://www.w3.org/2000/svg" xmlns:xlink="http://www.w3.org/1999/xlink" x="0px" y="0px"
	 viewBox="0 0 18 20" style="enable-background:new 0 0 18 20;" xml:space="preserve">
<style type="text/css">
	.st0{fill:#20A598;}
	.st1{fill:#A3DCD6;}
	.st2{fill:#FEFEFE;}
</style>
<title>Page 1</title>
<desc>Created with Sketch.</desc>
<g id="风险信息">
	<g id="风险详情" transform="translate(-15.000000, -41.000000)">
		<g id="logo-NXIDS" transform="translate(15.000000, 41.000000)">
			<g id="Page-1">
				<polygon id="Fill-1" class="st0" points="9,0 0,5 0,15 9,20 18,15 18,5 				"/>
				<g id="Group-6" transform="translate(3.000000, 1.904762)">
					<path id="Fill-2" class="st1" d="M3.8,0c-0.3,0-0.6,0-0.8,0c4.1,0.4,7.2,3.6,7.2,7.5c0,3.9-3.2,7.1-7.2,7.5c0.3,0,0.6,0,0.8,0
						c4.5,0,8.1-3.4,8.1-7.5C11.9,3.4,8.3,0,3.8,0"/>
					<path id="Fill-4" class="st2" d="M8.2,1.9c0.3,0,0.6,0,0.8,0C4.9,2.3,1.8,5.5,1.8,9.4c0,3.9,3.2,7.1,7.2,7.5
						c-0.3,0-0.6,0-0.8,0c-4.5,0-8.1-3.4-8.1-7.5C0.1,5.3,3.7,1.9,8.2,1.9"/>
				</g>
			</g>
		</g>
	</g>
</g>
</svg>
