<?xml version="1.0" encoding="utf-8"?>
<!-- Generator: Adobe Illustrator 22.0.0, SVG Export Plug-In . SVG Version: 6.00 Build 0)  -->
<svg version="1.1" id="图层_1" xmlns="http://www.w3.org/2000/svg" xmlns:xlink="http://www.w3.org/1999/xlink" x="0px" y="0px"
	 viewBox="0 0 119 20" style="enable-background:new 0 0 119 20;" xml:space="preserve">
<style type="text/css">
	.st0{fill:#20A598;}
	.st1{fill:#FFFFFF;}
	.st2{filter:url(#Adobe_OpacityMaskFilter);}
	.st3{mask:url(#mask-2_1_);fill:#FFFFFF;}
	.st4{fill:#2EA7E0;}
	.st5{fill:#E4007F;}
	.st6{filter:url(#Adobe_OpacityMaskFilter_1_);}
	.st7{mask:url(#mask-4_1_);fill:#FFFFFF;}
	.st8{filter:url(#Adobe_OpacityMaskFilter_2_);}
	.st9{mask:url(#mask-4_2_);fill:#FFFFFF;}
	.st10{filter:url(#Adobe_OpacityMaskFilter_3_);}
	.st11{mask:url(#mask-4_3_);fill:#FFFFFF;}
	.st12{filter:url(#Adobe_OpacityMaskFilter_4_);}
	.st13{mask:url(#mask-4_4_);fill:#FFFFFF;}
	.st14{filter:url(#Adobe_OpacityMaskFilter_5_);}
	.st15{mask:url(#mask-4_5_);fill:#FFFFFF;}
	.st16{filter:url(#Adobe_OpacityMaskFilter_6_);}
	.st17{mask:url(#mask-4_6_);fill:#FFFFFF;}
	.st18{fill:#A3DCD6;}
	.st19{fill:#FEFEFE;}
</style>
<title>logo-NXIDS</title>
<desc>Created with Sketch.</desc>
<g id="风险信息">
	<g id="风险详情" transform="translate(-15.000000, -41.000000)">
		<g id="logo-NXIDS" transform="translate(15.000000, 41.000000)">
			<g id="分组" transform="translate(23.000000, 2.000000)">
				<path id="Fill-1" class="st0" d="M5.5,1c1,0.1,1.8,0.8,2.1,1.8c0,0.2,0.1,0.4,0.1,0.6c0,0.2,0,0.3-0.1,0.5
					C7.3,4.9,6.4,5.7,5.2,5.7c0,0,0,0,0,0H2.9H2.6v0c0,0-0.1,0-0.1,0c0,0,0,0,0,0c0,0-0.1,0-0.1,0c0,0-0.1,0-0.1,0
					c-0.1,0-0.1,0-0.2,0c0,0-0.1,0-0.1,0c0,0-0.1,0-0.1,0c0,0-0.1,0-0.1,0.1c0,0,0,0,0,0c0,0,0,0-0.1,0c0,0,0,0,0,0
					C1.6,5.9,1.5,6,1.5,6c0,0-0.1,0-0.1,0c-0.1,0-0.1,0.1-0.2,0.1c0,0,0,0-0.1,0c0,0,0,0,0,0C1.1,6.2,1.1,6.2,1,6.3c0,0,0,0,0,0
					c-0.1,0-0.1,0.1-0.2,0.1c0,0,0,0,0,0c0,0,0,0,0,0C0.7,6.5,0.7,6.6,0.6,6.6c0,0,0,0,0,0c0,0.1-0.1,0.1-0.1,0.2c0,0,0,0,0,0
					c0,0-0.1,0.1-0.1,0.1c0,0,0,0,0,0.1c0,0-0.1,0.1-0.1,0.1c0,0,0,0.1,0,0.1c0,0,0,0.1,0,0.1c0,0,0,0.1,0,0.1c0,0,0,0,0,0.1
					c0,0.1,0,0.1-0.1,0.2c0,0,0,0,0,0C0,7.9,0,8.1,0,8.2v0c0,0,0,0.1,0,0.1c0,0,0,0,0,0v0.9v0.1V11c0-0.5,0.2-0.9,0.4-1.3
					c0.5-0.7,1.3-1.2,2.2-1.2h2.6c0,0,0,0,0,0C7.2,8.4,8.7,7,9,5.2C9,5,9,4.9,9,4.7C9,2.7,7.4,1.1,5.5,1"/>
				<path id="Fill-3" class="st1" d="M11,1h4.2c0.7,0,1.4,0.1,1.9,0.2c0.5,0.2,1,0.4,1.4,0.7s0.6,0.6,0.8,1c0.2,0.4,0.3,0.8,0.3,1.3
					c0,0.7-0.2,1.3-0.7,1.8C18.4,6.6,17.8,7,17,7.3l4,5.7h-3l-3.8-5.4h-0.5V13H11V1z M13.8,6.5h0.6c0.3,0,0.6,0,0.9-0.1
					c0.3-0.1,0.5-0.2,0.8-0.4c0.2-0.2,0.4-0.4,0.5-0.7c0.1-0.3,0.2-0.6,0.2-0.9c0-0.6-0.2-1.2-0.5-1.6c-0.3-0.4-0.8-0.6-1.3-0.6
					h-1.1V6.5z"/>
				<g transform="translate(22.000000, 0.000000)">
					<g id="Clip-6">
					</g>
					<defs>
						<filter id="Adobe_OpacityMaskFilter" filterUnits="userSpaceOnUse" x="0.8" y="0.8" width="9.4" height="12.1">
							<feColorMatrix  type="matrix" values="1 0 0 0 0  0 1 0 0 0  0 0 1 0 0  0 0 0 1 0"/>
						</filter>
					</defs>
					<mask maskUnits="userSpaceOnUse" x="0.8" y="0.8" width="9.4" height="12.1" id="mask-2_1_">
						<g class="st2">
							<polygon id="path-1_1_" class="st1" points="0.8,0.8 10.2,0.8 10.2,12.9 0.8,12.9 							"/>
						</g>
					</mask>
					<path id="Fill-5" class="st3" d="M3.6,12.6c-0.5-0.2-1-0.4-1.4-0.7c-0.4-0.3-0.7-0.6-0.9-1c-0.2-0.4-0.4-0.8-0.5-1.3h2
						c0.2,0.6,0.4,1.1,0.8,1.5c0.4,0.4,1,0.6,1.7,0.6c0.3,0,0.5,0,0.7-0.1c0.2,0,0.5-0.1,0.6-0.2c0.2-0.1,0.3-0.3,0.5-0.5
						c0.1-0.2,0.2-0.4,0.2-0.7C7.5,9.8,7.3,9.4,7,9C6.7,8.7,6.3,8.4,5.8,8.1c-0.5-0.3-1-0.5-1.6-0.8C3.7,7.1,3.2,6.8,2.7,6.5
						C2.2,6.2,1.9,5.9,1.5,5.5C1.2,5.1,1.1,4.6,1.1,4c0-0.5,0.1-0.9,0.3-1.3c0.2-0.4,0.5-0.7,0.9-1C2.7,1.4,3.2,1.2,3.7,1
						c0.6-0.2,1.2-0.2,2-0.2c0.6,0,1.2,0.1,1.7,0.2s0.9,0.4,1.3,0.7C9,2,9.4,2.3,9.6,2.7c0.3,0.4,0.5,0.8,0.6,1.2H8.3
						C8.2,3.7,8.1,3.4,8,3.1C7.8,2.9,7.6,2.7,7.4,2.5C7.2,2.3,7,2.1,6.7,2C6.4,1.9,6,1.9,5.6,1.9c-0.4,0-0.7,0-1,0.1
						C4.4,2.1,4.2,2.2,4,2.4C3.8,2.5,3.7,2.7,3.7,2.9C3.6,3.1,3.6,3.2,3.6,3.4c0,0.4,0.2,0.8,0.5,1.1c0.3,0.3,0.7,0.6,1.2,0.9
						c0.5,0.3,1,0.5,1.6,0.8C7.4,6.5,8,6.7,8.5,7.1C9,7.4,9.4,7.7,9.7,8.1C10,8.5,10.2,9,10.2,9.5c0,0.5-0.1,0.9-0.3,1.3
						c-0.2,0.4-0.5,0.8-0.9,1.1c-0.4,0.3-0.9,0.5-1.5,0.7c-0.6,0.2-1.3,0.3-2,0.3C4.7,12.9,4.1,12.8,3.6,12.6"/>
				</g>
				<path id="Fill-7" class="st4" d="M5.5,5.5C5.5,5.5,5.5,5.5,5.5,5.5C5.5,5.5,5.5,5.5,5.5,5.5C5.5,5.5,5.5,5.5,5.5,5.5"/>
				<path id="Fill-9" class="st0" d="M5.5,1c1.2,0.1,2.1,1.1,2.1,2.3c0,1.3-1.1,2.4-2.4,2.4c0,0,0,0,0,0H2.6v0c-0.1,0-0.2,0-0.3,0
					c0,0-0.1,0-0.1,0c-0.1,0-0.1,0-0.2,0c0,0-0.1,0-0.1,0c0,0-0.1,0-0.1,0c0,0-0.1,0-0.1,0.1c0,0,0,0,0,0c0,0,0,0-0.1,0
					C1.6,5.9,1.5,6,1.5,6c0,0-0.1,0-0.1,0c-0.1,0-0.1,0.1-0.2,0.1c0,0,0,0-0.1,0C1.1,6.2,1.1,6.2,1,6.3c0,0,0,0,0,0
					c-0.1,0-0.1,0.1-0.2,0.1c0,0,0,0,0,0C0.7,6.5,0.7,6.6,0.6,6.6c0,0,0,0,0,0C0.2,7.1,0,7.7,0,8.3c0,0,0,0,0,0V11
					c0-0.5,0.2-0.9,0.4-1.3c0.5-0.7,1.3-1.2,2.2-1.2h2.6c0,0,0,0,0,0C7.3,8.4,9,6.8,9,4.7C9,2.7,7.4,1.1,5.5,1"/>
				<path id="Fill-11" class="st1" d="M0.4,11.2C0.2,11.6,0,12,0,12.5V13h3v-3H2.8C1.8,10,0.9,10.5,0.4,11.2"/>
				<path id="Fill-13" class="st1" d="M0.1,7.5c0-0.1,0-0.1,0.1-0.2c0,0,0,0,0,0c0,0,0-0.1,0.1-0.1c0,0,0-0.1,0-0.1c0,0,0-0.1,0-0.1
					c0,0,0-0.1,0.1-0.1c0,0,0,0,0-0.1c0,0,0.1-0.1,0.1-0.1c0,0,0,0,0,0c0.1-0.1,0.2-0.2,0.3-0.3c0,0,0,0,0,0l0,0
					C0.9,6.2,1.1,6.1,1.2,6c0,0,0,0,0,0c0,0,0,0,0,0c0.1-0.1,0.3-0.2,0.4-0.2c0,0,0,0,0,0l0,0c0.3-0.1,0.6-0.2,0.9-0.2h0
					c0,0,0.1,0,0.1,0v0h0.2V3.6h1.7h0.8v0c0,0,0,0,0,0c0.6,0,1,0.4,1,1c0,0.1,0,0.2,0,0.3C6.7,4.5,7,3.9,7,3.3C7,2.1,6,1.1,4.8,1
					C4.7,1,4.7,1,4.6,1v0H2.9h0H2.1h0H0v5.3V8C0,7.8,0,7.7,0.1,7.5C0.1,7.5,0.1,7.5,0.1,7.5"/>
				<path id="Fill-15" class="st0" d="M2.5,5.5L2.5,5.5L2.5,5.5z"/>
				<path id="Fill-17" class="st0" d="M1.5,6.5C1.5,6.5,1.5,6.5,1.5,6.5C1.5,6.5,1.5,6.5,1.5,6.5C1.5,6.5,1.5,6.5,1.5,6.5"/>
				<path id="Fill-19" class="st5" d="M5.5,5.5C5.5,5.5,5.5,5.5,5.5,5.5C5.5,5.5,5.5,5.5,5.5,5.5L5.5,5.5z"/>
				<g id="Clip-22">
				</g>
				<defs>
					<filter id="Adobe_OpacityMaskFilter_1_" filterUnits="userSpaceOnUse" x="34" y="8" width="5" height="1">
						<feColorMatrix  type="matrix" values="1 0 0 0 0  0 1 0 0 0  0 0 1 0 0  0 0 0 1 0"/>
					</filter>
				</defs>
				<mask maskUnits="userSpaceOnUse" x="34" y="8" width="5" height="1" id="mask-4_1_">
					<g class="st6">
						<polygon id="path-3_1_" class="st1" points="0,13 95,13 95,1 0,1 						"/>
					</g>
				</mask>
				<polygon id="Fill-21" class="st7" points="34,9 39,9 39,8 34,8 				"/>
				<defs>
					<filter id="Adobe_OpacityMaskFilter_2_" filterUnits="userSpaceOnUse" x="41" y="1" width="10" height="12">
						<feColorMatrix  type="matrix" values="1 0 0 0 0  0 1 0 0 0  0 0 1 0 0  0 0 0 1 0"/>
					</filter>
				</defs>
				<mask maskUnits="userSpaceOnUse" x="41" y="1" width="10" height="12" id="mask-4_2_">
					<g class="st8">
						<polygon id="path-3_2_" class="st1" points="0,13 95,13 95,1 0,1 						"/>
					</g>
				</mask>
				<polygon id="Fill-23" class="st9" points="41,1 42.8,1 49.3,8.5 49.3,1 51,1 51,13 49.8,13 42.8,4.7 42.8,12.8 41,12.8 				"/>
				<defs>
					<filter id="Adobe_OpacityMaskFilter_3_" filterUnits="userSpaceOnUse" x="53" y="1" width="12" height="12">
						<feColorMatrix  type="matrix" values="1 0 0 0 0  0 1 0 0 0  0 0 1 0 0  0 0 0 1 0"/>
					</filter>
				</defs>
				<mask maskUnits="userSpaceOnUse" x="53" y="1" width="12" height="12" id="mask-4_3_">
					<g class="st10">
						<polygon id="path-3_3_" class="st1" points="0,13 95,13 95,1 0,1 						"/>
					</g>
				</mask>
				<polygon id="Fill-24" class="st11" points="54.9,13 53,13 57.8,7.1 53.5,1 56.5,1 59.4,5.1 62.7,1 64.6,1 60.3,6.4 65,13 62,13 
					58.7,8.4 				"/>
				<defs>
					<filter id="Adobe_OpacityMaskFilter_4_" filterUnits="userSpaceOnUse" x="67" y="1" width="3" height="12">
						<feColorMatrix  type="matrix" values="1 0 0 0 0  0 1 0 0 0  0 0 1 0 0  0 0 0 1 0"/>
					</filter>
				</defs>
				<mask maskUnits="userSpaceOnUse" x="67" y="1" width="3" height="12" id="mask-4_4_">
					<g class="st12">
						<polygon id="path-3_4_" class="st1" points="0,13 95,13 95,1 0,1 						"/>
					</g>
				</mask>
				<polygon id="Fill-25" class="st13" points="67,13 70,13 70,1 67,1 				"/>
				<defs>
					<filter id="Adobe_OpacityMaskFilter_5_" filterUnits="userSpaceOnUse" x="72" y="1" width="12" height="12">
						<feColorMatrix  type="matrix" values="1 0 0 0 0  0 1 0 0 0  0 0 1 0 0  0 0 0 1 0"/>
					</filter>
				</defs>
				<mask maskUnits="userSpaceOnUse" x="72" y="1" width="12" height="12" id="mask-4_5_">
					<g class="st14">
						<polygon id="path-3_5_" class="st1" points="0,13 95,13 95,1 0,1 						"/>
					</g>
				</mask>
				<path id="Fill-26" class="st15" d="M74.9,11.8h1.6c0.6,0,1.1-0.1,1.6-0.3c0.5-0.2,1-0.5,1.3-0.9c0.4-0.4,0.7-0.9,0.9-1.5
					c0.2-0.6,0.3-1.3,0.3-2.1c0-0.7-0.1-1.3-0.3-1.9c-0.2-0.6-0.5-1.1-0.9-1.5c-0.4-0.4-0.8-0.7-1.3-1c-0.5-0.2-1.1-0.4-1.7-0.4
					h-1.6V11.8z M72,1h4.4c1.1,0,2.1,0.1,3.1,0.4c0.9,0.3,1.7,0.6,2.4,1.1c0.7,0.5,1.2,1.1,1.6,1.8C83.8,5.1,84,6,84,6.9
					c0,0.9-0.2,1.6-0.5,2.4c-0.3,0.7-0.8,1.4-1.4,1.9c-0.6,0.6-1.4,1-2.2,1.3C79,12.8,78,13,76.8,13H72V1z"/>
				<defs>
					<filter id="Adobe_OpacityMaskFilter_6_" filterUnits="userSpaceOnUse" x="86" y="1" width="9" height="12">
						<feColorMatrix  type="matrix" values="1 0 0 0 0  0 1 0 0 0  0 0 1 0 0  0 0 0 1 0"/>
					</filter>
				</defs>
				<mask maskUnits="userSpaceOnUse" x="86" y="1" width="9" height="12" id="mask-4_6_">
					<g class="st16">
						<polygon id="path-3_6_" class="st1" points="0,13 95,13 95,1 0,1 						"/>
					</g>
				</mask>
				<path id="Fill-27" class="st17" d="M90.5,13c-0.7,0-1.3-0.1-1.8-0.2c-0.5-0.2-1-0.4-1.3-0.7c-0.4-0.3-0.7-0.6-0.9-1
					c-0.2-0.4-0.4-0.8-0.4-1.3h2c0.1,0.6,0.4,1.1,0.8,1.5c0.4,0.4,1,0.6,1.7,0.6c0.2,0,0.5,0,0.7-0.1c0.2-0.1,0.4-0.1,0.6-0.2
					c0.2-0.1,0.3-0.3,0.4-0.4c0.1-0.2,0.2-0.4,0.2-0.7c0-0.5-0.2-0.8-0.5-1.2c-0.3-0.3-0.7-0.6-1.1-0.9c-0.5-0.3-1-0.5-1.5-0.8
					c-0.5-0.2-1-0.5-1.5-0.8c-0.5-0.3-0.8-0.7-1.1-1c-0.3-0.4-0.5-0.9-0.5-1.4c0-0.5,0.1-0.9,0.3-1.3c0.2-0.4,0.5-0.7,0.9-1
					c0.4-0.3,0.9-0.5,1.4-0.7C89.4,1.1,90,1,90.7,1c0.6,0,1.1,0.1,1.6,0.2c0.5,0.2,0.9,0.4,1.2,0.7c0.4,0.3,0.7,0.6,0.9,1
					c0.2,0.4,0.4,0.8,0.6,1.2h-1.8c-0.1-0.3-0.2-0.5-0.4-0.8c-0.1-0.2-0.3-0.5-0.5-0.7c-0.2-0.2-0.4-0.3-0.7-0.4
					C91.3,2.1,91,2,90.6,2c-0.4,0-0.7,0-0.9,0.1c-0.2,0.1-0.5,0.2-0.6,0.4c-0.2,0.2-0.3,0.3-0.3,0.5c-0.1,0.2-0.1,0.4-0.1,0.5
					c0,0.4,0.2,0.8,0.5,1.1c0.3,0.3,0.7,0.6,1.2,0.9s1,0.5,1.5,0.8c0.5,0.3,1.1,0.5,1.5,0.9s0.9,0.7,1.2,1.1C94.8,8.7,95,9.1,95,9.7
					c0,0.5-0.1,0.9-0.3,1.3c-0.2,0.4-0.5,0.8-0.9,1.1c-0.4,0.3-0.9,0.5-1.4,0.7C91.9,12.9,91.2,13,90.5,13"/>
			</g>
			<g id="Page-1">
				<polygon id="Fill-1_1_" class="st0" points="9,0 0,5 0,15 9,20 18,15 18,5 				"/>
				<g id="Group-6" transform="translate(3.000000, 1.904762)">
					<path id="Fill-2" class="st18" d="M3.8,0c-0.3,0-0.6,0-0.8,0c4.1,0.4,7.2,3.6,7.2,7.5c0,3.9-3.2,7.1-7.2,7.5c0.3,0,0.6,0,0.8,0
						c4.5,0,8.1-3.4,8.1-7.5C11.9,3.4,8.3,0,3.8,0"/>
					<path id="Fill-4" class="st19" d="M8.2,1.9c0.3,0,0.6,0,0.8,0C4.9,2.3,1.8,5.5,1.8,9.4c0,3.9,3.2,7.1,7.2,7.5
						c-0.3,0-0.6,0-0.8,0c-4.5,0-8.1-3.4-8.1-7.5C0.1,5.3,3.7,1.9,8.2,1.9"/>
				</g>
			</g>
		</g>
	</g>
</g>
</svg>
