<?xml version="1.0" encoding="utf-8"?>
<!-- Generator: Adobe Illustrator 22.0.0, SVG Export Plug-In . SVG Version: 6.00 Build 0)  -->
<svg version="1.1" id="图层_1" xmlns="http://www.w3.org/2000/svg" xmlns:xlink="http://www.w3.org/1999/xlink" x="0px" y="0px"
	 viewBox="0 0 18 20" style="enable-background:new 0 0 18 20;" xml:space="preserve">
<style type="text/css">
	.st0{fill:#3792EA;}
	.st1{fill:#8DC6FF;}
	.st2{fill:#FEFEFE;}
</style>
<title>logo</title>
<desc>Created with Sketch.</desc>
<g id="页面1">
	<g id="导航收起" transform="translate(-15.000000, -15.000000)">
		<g id="logo" transform="translate(15.000000, 15.000000)">
			<g id="Group">
				<g id="Page-1">
					<polygon id="Fill-1" class="st0" points="8.8,0 0,5 0,14.9 8.8,19.9 17.6,14.9 17.6,5 					"/>
					<g id="Group-6" transform="translate(2.953481, 1.643304)">
						<path id="Fill-2" class="st1" d="M3.6,0c-0.3,0-0.5,0-0.8,0c3.8,0.4,6.8,3.5,6.8,7.4c0,3.8-3,7-6.8,7.4c0.3,0,0.5,0,0.8,0
							c4.2,0,7.6-3.3,7.6-7.4C11.2,3.4,7.8,0,3.6,0"/>
						<path id="Fill-4" class="st2" d="M7.7,1.9c0.3,0,0.5,0,0.8,0C4.6,2.3,1.7,5.4,1.7,9.3c0,3.8,3,7,6.8,7.4c-0.3,0-0.5,0-0.8,0
							c-4.2,0-7.6-3.3-7.6-7.4C0.1,5.2,3.5,1.9,7.7,1.9"/>
					</g>
				</g>
			</g>
		</g>
	</g>
</g>
</svg>
