<?xml version="1.0" encoding="utf-8"?>
<!-- Generator: Adobe Illustrator 22.0.0, SVG Export Plug-In . SVG Version: 6.00 Build 0)  -->
<svg version="1.1" id="图层_1" xmlns="http://www.w3.org/2000/svg" xmlns:xlink="http://www.w3.org/1999/xlink" x="0px" y="0px"
	 viewBox="0 0 111 20" style="enable-background:new 0 0 111 20;" xml:space="preserve">
<style type="text/css">
	.st0{fill:#3792EA;}
	.st1{fill:#8DC6FF;}
	.st2{fill:#FEFEFE;}
	.st3{filter:url(#Adobe_OpacityMaskFilter);}
	.st4{fill:#FFFFFF;}
	.st5{mask:url(#mask-2_1_);fill:#3792EA;}
	.st6{fill:#2EA7E0;}
	.st7{fill:#E4007F;}
</style>
<title>logo</title>
<desc>Created with Sketch.</desc>
<g id="页面1">
	<g id="冷数据查询" transform="translate(-15.000000, -15.000000)">
		<g id="logo" transform="translate(15.000000, 15.000000)">
			<g id="Group">
				<g id="Page-1">
					<polygon id="Fill-1" class="st0" points="8.8,0 0,5 0,14.9 8.8,19.9 17.6,14.9 17.6,5 					"/>
					<g id="Group-6" transform="translate(2.953481, 1.643304)">
						<path id="Fill-2" class="st1" d="M3.6,0c-0.3,0-0.5,0-0.8,0c3.8,0.4,6.8,3.5,6.8,7.4c0,3.8-3,7-6.8,7.4c0.3,0,0.5,0,0.8,0
							c4.2,0,7.6-3.3,7.6-7.4C11.2,3.4,7.8,0,3.6,0"/>
						<path id="Fill-4" class="st2" d="M7.7,1.9c0.3,0,0.5,0,0.8,0C4.6,2.3,1.7,5.4,1.7,9.3c0,3.8,3,7,6.8,7.4c-0.3,0-0.5,0-0.8,0
							c-4.2,0-7.6-3.3-7.6-7.4C0.1,5.2,3.5,1.9,7.7,1.9"/>
					</g>
				</g>
				<g id="Page-1_1_" transform="translate(23.000000, 2.000000)">
					<g id="Group-3" transform="translate(0.000000, 0.118235)">
						<g id="Clip-2">
						</g>
						<defs>
							<filter id="Adobe_OpacityMaskFilter" filterUnits="userSpaceOnUse" x="0" y="0.3" width="10.9" height="12">
								<feColorMatrix  type="matrix" values="1 0 0 0 0  0 1 0 0 0  0 0 1 0 0  0 0 0 1 0"/>
							</filter>
						</defs>
						<mask maskUnits="userSpaceOnUse" x="0" y="0.3" width="10.9" height="12" id="mask-2_1_">
							<g class="st3">
								<polygon id="path-1_1_" class="st4" points="0,12.3 0,0 38.7,0 38.7,14.3 0,14.3 0,12.3 10.9,12.3 10.9,0.3 0,0.3 								
									"/>
							</g>
						</mask>
						<path id="Fill-1_1_" class="st5" d="M6.7,0.3c1.2,0.1,2.2,1,2.5,2.1c0.1,0.2,0.1,0.5,0.1,0.7c0,0.2,0,0.4-0.1,0.6
							C8.9,5,7.8,5.9,6.4,6c0,0,0,0,0,0H3.5H3.2v0C3.1,6,3.1,6,3,6c0,0,0,0,0,0C3,6,2.9,6,2.9,6c0,0-0.1,0-0.1,0C2.7,6,2.6,6,2.6,6
							c-0.1,0-0.1,0-0.2,0c-0.1,0-0.1,0-0.2,0c-0.1,0-0.1,0-0.2,0.1c0,0,0,0-0.1,0c0,0,0,0-0.1,0c0,0,0,0,0,0
							c-0.1,0-0.1,0.1-0.2,0.1c0,0-0.1,0-0.1,0c-0.1,0-0.1,0.1-0.2,0.1c0,0,0,0-0.1,0c0,0,0,0,0,0c-0.1,0-0.1,0.1-0.2,0.1
							c0,0,0,0,0,0C1.1,6.7,1,6.8,1,6.8c0,0,0,0,0,0c0,0,0,0,0,0C0.9,6.9,0.8,7,0.8,7.1c0,0,0,0,0,0C0.7,7.1,0.7,7.2,0.6,7.2
							c0,0,0,0,0,0c0,0.1-0.1,0.1-0.1,0.2c0,0,0,0,0,0.1c0,0.1-0.1,0.1-0.1,0.2c0,0,0,0.1,0,0.1c0,0,0,0.1-0.1,0.1
							c0,0.1,0,0.1-0.1,0.2c0,0,0,0,0,0.1c0,0.1,0,0.2-0.1,0.2c0,0,0,0,0,0C0,8.6,0,8.8,0,9v0C0,9,0,9,0,9.1c0,0,0,0,0,0.1v1v0.1v2
							c0-0.6,0.2-1.1,0.5-1.6C1,9.8,2,9.2,3.2,9.2h3.2c0,0,0,0,0,0c2.3,0,4.2-1.7,4.5-3.9c0-0.2,0-0.4,0-0.6
							C10.9,2.4,9.1,0.5,6.7,0.3"/>
					</g>
					<path id="Fill-4_1_" class="st4" d="M16.8,6.7h0.8c0.4,0,0.8-0.1,1.2-0.2c0.4-0.1,0.7-0.3,0.9-0.5c0.3-0.2,0.5-0.5,0.6-0.8
						c0.1-0.3,0.2-0.7,0.2-1.1c0-0.7-0.2-1.3-0.6-1.8c-0.4-0.5-1-0.7-1.7-0.7h-1.4V6.7z M13.4,0.4h5.3c0.9,0,1.7,0.1,2.4,0.3
						c0.7,0.2,1.3,0.4,1.7,0.8c0.5,0.3,0.8,0.7,1,1.2c0.2,0.5,0.3,1,0.3,1.5c0,0.8-0.3,1.5-0.9,2.1c-0.6,0.6-1.4,1-2.3,1.3l5,6.6
						h-3.8l-4.7-6.2h-0.6v6.2h-3.5V0.4z"/>
					<path id="Fill-6" class="st4" d="M30.1,14.1c-0.6-0.2-1.2-0.5-1.6-0.8c-0.4-0.3-0.8-0.8-1.1-1.2c-0.3-0.5-0.4-1-0.5-1.5h2.4
						c0.2,0.7,0.5,1.3,1,1.7c0.5,0.5,1.2,0.7,2,0.7c0.3,0,0.6,0,0.9-0.1c0.3-0.1,0.5-0.2,0.8-0.3c0.2-0.1,0.4-0.3,0.5-0.5
						c0.1-0.2,0.2-0.5,0.2-0.8c0-0.5-0.2-1-0.6-1.4c-0.4-0.4-0.8-0.7-1.4-1.1c-0.6-0.3-1.2-0.6-1.8-0.9c-0.7-0.3-1.3-0.6-1.8-1
						c-0.6-0.4-1-0.8-1.4-1.2c-0.4-0.5-0.6-1-0.6-1.7c0-0.5,0.1-1,0.4-1.5c0.2-0.5,0.6-0.9,1.1-1.2c0.5-0.3,1-0.6,1.7-0.8
						c0.7-0.2,1.4-0.3,2.3-0.3c0.7,0,1.4,0.1,1.9,0.3c0.6,0.2,1.1,0.5,1.5,0.8c0.4,0.3,0.8,0.7,1.1,1.2c0.3,0.5,0.5,0.9,0.7,1.5
						h-2.2c-0.1-0.3-0.3-0.6-0.4-0.9c-0.2-0.3-0.4-0.6-0.6-0.8c-0.2-0.2-0.5-0.4-0.9-0.5c-0.3-0.1-0.8-0.2-1.2-0.2
						c-0.4,0-0.8,0.1-1.1,0.2c-0.3,0.1-0.6,0.3-0.8,0.4s-0.3,0.4-0.4,0.6c-0.1,0.2-0.1,0.4-0.1,0.7c0,0.5,0.2,0.9,0.6,1.3
						c0.4,0.4,0.9,0.7,1.4,1c0.6,0.3,1.2,0.6,1.9,0.9c0.7,0.3,1.3,0.6,1.9,1c0.6,0.4,1.1,0.8,1.4,1.3c0.4,0.5,0.6,1,0.6,1.7
						c0,0.6-0.1,1.1-0.4,1.6c-0.2,0.5-0.6,0.9-1.1,1.3c-0.5,0.4-1,0.6-1.7,0.8c-0.7,0.2-1.5,0.3-2.4,0.3
						C31.5,14.4,30.8,14.3,30.1,14.1z"/>
					<path id="Fill-8" class="st6" d="M6.4,6.1C6.4,6.1,6.4,6.1,6.4,6.1C6.4,6.1,6.4,6.1,6.4,6.1C6.4,6.1,6.4,6.1,6.4,6.1"/>
					<g id="Group-12" transform="translate(0.000000, 0.118235)">
						<g id="Clip-11">
						</g>
						<path id="Fill-10" class="st0" d="M6.7,0.3c1.5,0.1,2.6,1.3,2.6,2.8C9.3,4.7,8,5.9,6.4,6c0,0,0,0,0,0H3.2v0C3.1,6,3,6,2.9,6
							c0,0-0.1,0-0.1,0C2.7,6,2.6,6,2.6,6c-0.1,0-0.1,0-0.2,0c-0.1,0-0.1,0-0.2,0c-0.1,0-0.1,0-0.2,0.1c0,0,0,0-0.1,0c0,0,0,0-0.1,0
							c-0.1,0-0.1,0.1-0.2,0.1c0,0-0.1,0-0.1,0c-0.1,0-0.1,0.1-0.2,0.1c0,0,0,0-0.1,0c-0.1,0-0.1,0.1-0.2,0.1c0,0,0,0,0,0
							C1.1,6.7,1,6.8,1,6.8c0,0,0,0,0,0C0.9,6.9,0.8,7,0.8,7.1c0,0,0,0,0,0C0.3,7.6,0,8.3,0,9.1c0,0,0,0,0,0.1v3.1
							c0-0.6,0.2-1.1,0.5-1.6C1,9.8,2,9.2,3.2,9.2h3.2c0,0,0,0,0,0c2.5,0,4.6-2,4.6-4.5C10.9,2.4,9.1,0.5,6.7,0.3"/>
					</g>
					<path id="Fill-13" class="st4" d="M0.5,12C0.2,12.5,0,13,0,13.6v0.6h3.5v-3.6H3.2C2,10.5,1,11.1,0.5,12"/>
					<path id="Fill-15" class="st4" d="M0.1,8.5c0-0.1,0-0.2,0.1-0.2c0,0,0,0,0-0.1c0-0.1,0-0.1,0.1-0.2c0,0,0-0.1,0.1-0.1
						c0,0,0-0.1,0-0.1c0-0.1,0.1-0.1,0.1-0.2c0,0,0,0,0-0.1c0-0.1,0.1-0.1,0.1-0.2c0,0,0,0,0,0C0.7,7.2,0.8,7.1,1,7c0,0,0,0,0,0
						c0,0,0,0,0,0c0.1-0.1,0.3-0.3,0.5-0.4c0,0,0,0,0,0c0,0,0,0,0,0C1.6,6.5,1.8,6.4,2,6.3c0,0,0,0,0,0c0,0,0,0,0,0
						C2.3,6.2,2.7,6.1,3,6.1c0,0,0,0,0,0c0.1,0,0.1,0,0.2,0v0h0.3V3.7h2h0.9v0c0,0,0,0,0,0c0.7,0,1.2,0.5,1.2,1.2
						c0,0.1,0,0.2-0.1,0.3c0.5-0.5,0.8-1.2,0.8-2c0-1.5-1.1-2.7-2.6-2.8c-0.1,0-0.2,0-0.3,0v0h-2h0H2.6h0H0V7v2.1
						C0,8.9,0,8.7,0.1,8.5C0.1,8.5,0.1,8.5,0.1,8.5"/>
					<path id="Fill-17" class="st0" d="M3,6.1C3,6.1,3,6.1,3,6.1C3,6.1,3,6.1,3,6.1"/>
					<path id="Fill-19" class="st0" d="M2,6.3C2,6.3,2,6.3,2,6.3C2,6.3,2,6.3,2,6.3C2,6.3,2,6.3,2,6.3"/>
					<path id="Fill-21" class="st7" d="M6.4,6.1C6.4,6.1,6.4,6.1,6.4,6.1C6.4,6.1,6.4,6.1,6.4,6.1L6.4,6.1L6.4,6.1z"/>
				</g>
			</g>
			<path id="NTA" class="st4" d="M68.7,2.4h2.1l7.7,8.6V2.4h2.1v13.8h-1.4l-8.4-9.5V16h-2.1V2.4z M95.5,2.4v1.2h-4.7V16h-3.3V3.6
				h-4.7V2.4H95.5z M104.2,2.2l6.4,13.8h-3.4l-1.7-3.7h-5.3L98.4,16h-2.3l6.6-13.8H104.2z M100.8,11h4.1l-2-4.4L100.8,11z"/>
			<polygon id="Fill-21_1_" class="st4" points="61,10.7 66.9,10.7 66.9,9 61,9 			"/>
		</g>
	</g>
</g>
</svg>
